<svg version="1.1" id="Layer_1" xmlns="http://www.w3.org/2000/svg" xmlns:xlink="http://www.w3.org/1999/xlink" x="0px" y="0px"
	 width="539px" height="535px" viewBox="0 0 539 535" enable-background="new 0 0 539 535" xml:space="preserve">
<path fill="#FEFEFF" opacity="1.000000" stroke="none" 
	d="
M243.000000,536.000000 
	C162.018723,536.000000 81.537445,536.000000 1.028084,536.000000 
	C1.028084,357.726868 1.028084,179.453735 1.028084,1.090298 
	C180.564636,1.090298 360.129333,1.090298 539.847046,1.090298 
	C539.847046,179.333237 539.847046,357.666595 539.847046,536.000000 
	C441.120331,536.000000 342.310150,536.000000 243.000000,536.000000 
M315.099091,242.130936 
	C315.065277,240.087006 315.031433,238.043076 315.130768,235.143951 
	C315.034302,233.426788 314.937836,231.709610 314.820343,229.294052 
	C314.038116,228.052078 313.123993,226.873138 312.495300,225.557800 
	C308.693787,217.604340 302.212372,213.387405 293.617523,213.339417 
	C256.642426,213.132996 219.656097,212.690186 182.693268,213.377228 
	C160.611359,213.787689 155.310577,234.402298 160.937164,247.779007 
	C164.881836,257.047119 172.308929,261.860748 181.959366,261.939392 
	C219.001999,262.241302 256.048889,262.138550 293.092865,261.942810 
	C296.135071,261.926727 299.167542,260.072998 302.923706,259.139557 
	C309.882050,256.435699 313.764465,251.266571 315.157013,243.499313 
	C315.100098,243.333511 315.043152,243.167709 315.099091,242.130936 
M291.247803,301.289642 
	C291.396240,297.283813 291.544678,293.277954 291.707062,288.458923 
	C290.892670,286.598236 290.078308,284.737549 289.190155,282.157135 
	C285.321686,273.596527 277.946198,269.613495 269.293945,269.484955 
	C240.197906,269.052704 211.086502,268.970001 181.991409,269.423035 
	C165.430740,269.680908 155.229706,284.994690 159.977417,301.582581 
	C160.277206,302.069122 160.576996,302.555695 160.963577,303.751251 
	C164.367096,311.796326 170.406265,316.491333 179.920944,318.128540 
	C209.281769,318.105774 238.642593,318.083008 268.863525,318.239410 
	C280.393890,318.524445 286.444763,311.390350 291.247803,301.289642 
M353.001984,332.185394 
	C352.039062,331.440887 351.076172,330.696381 349.672058,329.374481 
	C344.553436,328.193756 339.440460,326.015717 334.315369,325.986938 
	C284.518555,325.707245 234.719650,325.741608 184.921738,325.858887 
	C181.231949,325.867584 177.545319,327.210449 173.159729,327.977875 
	C170.693100,329.610504 168.226486,331.243164 165.140701,333.150024 
	C163.459778,336.434143 161.778839,339.718262 159.704666,343.729797 
	C159.786804,347.854858 159.868958,351.979919 159.864288,356.822235 
	C160.632645,358.551025 161.401016,360.279846 162.248962,362.665070 
	C163.808792,364.504547 165.368622,366.343994 167.230927,368.799988 
	C170.482117,370.201569 173.733322,371.603119 177.687408,373.457001 
	C185.116104,373.583984 192.544800,373.710968 200.899155,374.016357 
	C222.269791,373.961182 243.640442,373.906006 265.660217,374.031097 
	C266.101288,373.971466 266.542389,373.911835 267.903229,374.029114 
	C272.605377,373.978424 277.307526,373.927765 282.931061,374.056976 
	C300.884308,374.068481 318.837677,374.114960 336.790588,374.044373 
	C338.883301,374.036133 340.973419,373.380371 343.806824,373.109711 
	C347.197662,370.999695 350.588531,368.889679 354.624359,366.677612 
	C355.780487,364.849060 356.936615,363.020538 358.611206,360.844055 
	C358.960693,359.881989 359.310150,358.919891 360.041351,357.116486 
	C359.998718,353.747528 359.956085,350.378540 360.123199,346.373047 
	C358.528351,342.596100 356.933502,338.819122 355.110962,334.551514 
	C354.436676,333.972168 353.762360,333.392792 353.001984,332.185394 
M275.500000,157.101028 
	C244.684952,157.104553 213.869827,157.067230 183.054916,157.131561 
	C170.585480,157.157593 160.275604,166.462463 158.906555,178.669067 
	C157.209000,193.804779 167.683975,205.930252 183.030670,205.963730 
	C235.832153,206.078873 288.634155,206.053345 341.435760,205.960983 
	C355.294281,205.936737 365.837372,195.187927 365.891968,181.527695 
	C365.946442,167.896103 355.334320,157.192734 341.461273,157.135254 
	C319.807831,157.045517 298.153778,157.103455 275.500000,157.101028 
z"/>
<path fill="#C8FF2F" opacity="1.000000" stroke="none" 
	d="
M276.000000,157.099915 
	C298.153778,157.103455 319.807831,157.045517 341.461273,157.135254 
	C355.334320,157.192734 365.946442,167.896103 365.891968,181.527695 
	C365.837372,195.187927 355.294281,205.936737 341.435760,205.960983 
	C288.634155,206.053345 235.832153,206.078873 183.030670,205.963730 
	C167.683975,205.930252 157.209000,193.804779 158.906555,178.669067 
	C160.275604,166.462463 170.585480,157.157593 183.054916,157.131561 
	C213.869827,157.067230 244.684952,157.104553 276.000000,157.099915 
z"/>
<path fill="#A8FF30" opacity="1.000000" stroke="none" 
	d="
M160.850616,247.068573 
	C155.310577,234.402298 160.611359,213.787689 182.693268,213.377228 
	C219.656097,212.690186 256.642426,213.132996 293.617523,213.339417 
	C302.212372,213.387405 308.693787,217.604340 312.495300,225.557800 
	C313.123993,226.873138 314.038116,228.052078 314.460083,229.632721 
	C310.549164,227.646896 307.145447,225.034683 303.387573,223.116119 
	C301.430939,222.117172 298.849701,222.341583 296.550598,222.013397 
	C296.377350,223.540558 296.204102,225.067734 296.011047,226.769485 
	C295.250366,227.391861 294.164124,228.280640 293.077850,229.169434 
	C294.230499,229.619125 295.383118,230.068832 296.498962,230.504181 
	C296.012299,232.937866 295.506165,235.468933 294.564758,238.000000 
	C273.181946,241.763199 252.465256,236.806793 230.329681,237.308868 
	C227.382462,239.494370 210.013046,239.560059 205.344208,236.377075 
	C202.521255,238.361145 200.060730,241.607498 195.769821,239.106705 
	C194.870667,238.582657 193.219376,239.406876 191.907013,239.523926 
	C186.650131,239.992813 180.875519,241.983597 176.269073,240.459534 
	C171.157837,238.768494 168.548004,240.656616 165.350952,243.190826 
	C163.800476,244.419846 162.347656,245.772110 160.850616,247.068573 
M277.701782,221.667816 
	C278.539368,221.979675 279.376923,222.291534 280.214508,222.603378 
	C280.370789,222.014603 280.846039,221.111237 280.628693,220.890900 
	C279.626801,219.874969 278.519012,218.469223 277.286896,218.284210 
	C275.152832,217.963776 272.898834,218.441956 270.541748,218.595139 
	C271.380829,222.876068 274.807343,220.726730 277.701782,221.667816 
M264.004242,225.374619 
	C264.988647,224.281418 265.973022,223.188202 266.957428,222.095001 
	C266.352295,221.773697 265.747131,221.452393 265.141998,221.131104 
	C264.574493,222.643082 264.006989,224.155060 264.004242,225.374619 
M269.377930,225.664505 
	C269.779388,225.069702 270.180817,224.474899 270.582275,223.880096 
	C270.192505,223.739090 269.802704,223.598068 269.412933,223.457047 
	C269.198792,224.182037 268.984650,224.907043 269.377930,225.664505 
M275.391449,224.202332 
	C275.785706,224.206497 276.179932,224.210663 276.574188,224.214828 
	C276.575775,224.051239 276.588318,223.745468 276.577332,223.744614 
	C276.184998,223.714417 275.790497,223.712692 275.391449,224.202332 
z"/>
<path fill="#A1FF30" opacity="1.000000" stroke="none" 
	d="
M160.893890,247.423798 
	C162.347656,245.772110 163.800476,244.419846 165.350952,243.190826 
	C168.548004,240.656616 171.157837,238.768494 176.269073,240.459534 
	C180.875519,241.983597 186.650131,239.992813 191.907013,239.523926 
	C193.219376,239.406876 194.870667,238.582657 195.769821,239.106705 
	C200.060730,241.607498 202.521255,238.361145 205.344208,236.377075 
	C210.013046,239.560059 227.382462,239.494370 230.329681,237.308868 
	C252.465256,236.806793 273.181946,241.763199 294.564758,238.434570 
	C294.667480,242.579132 294.334961,246.289108 293.852966,250.334915 
	C293.355743,252.997711 292.211365,255.574783 292.845184,257.593628 
	C293.818634,260.694427 296.790924,259.555603 299.218048,259.055573 
	C300.171844,258.859070 301.206635,259.055573 302.204529,259.073120 
	C299.167542,260.072998 296.135071,261.926727 293.092865,261.942810 
	C256.048889,262.138550 219.001999,262.241302 181.959366,261.939392 
	C172.308929,261.860748 164.881836,257.047119 160.893890,247.423798 
z"/>
<path fill="#84FF41" opacity="1.000000" stroke="none" 
	d="
M160.014526,300.990295 
	C155.229706,284.994690 165.430740,269.680908 181.991409,269.423035 
	C211.086502,268.970001 240.197906,269.052704 269.293945,269.484955 
	C277.946198,269.613495 285.321686,273.596527 288.841614,282.682068 
	C279.542877,284.050140 270.541809,285.957367 261.652283,285.532257 
	C237.287827,284.366913 213.109039,284.374207 189.362350,290.803345 
	C186.110748,291.683716 183.181168,293.785767 179.922028,294.598785 
	C174.432510,295.968292 168.763168,296.608551 163.251724,297.905182 
	C162.000000,298.199677 161.084671,299.924072 160.014526,300.990295 
z"/>
<path fill="#09A23D" opacity="1.000000" stroke="none" 
	d="
M160.097900,343.002441 
	C161.778839,339.718262 163.459778,336.434143 165.756424,333.224792 
	C168.311050,334.826141 170.066681,337.305634 172.219559,337.719666 
	C183.494827,339.888123 194.875336,341.639832 206.425003,340.968597 
	C215.160461,340.460938 223.873138,339.243774 232.607346,339.114777 
	C242.699493,338.965698 252.802399,339.738007 262.903778,339.977448 
	C279.651947,340.374481 296.402344,340.684479 313.152771,340.975281 
	C315.105530,341.009186 317.065887,340.540253 319.020203,340.559631 
	C328.810822,340.656555 338.601105,340.963257 348.390442,340.926056 
	C352.052795,340.912109 355.406250,339.809082 355.338654,335.042175 
	C356.933502,338.819122 358.528351,342.596100 359.589417,346.687744 
	C356.111328,347.334930 353.168182,347.943390 350.222595,347.955505 
	C329.800232,348.039490 309.377380,348.010773 288.954681,347.988434 
	C285.381378,347.984528 281.807739,347.856628 278.235046,347.757568 
	C269.489502,347.515106 260.744415,347.256042 251.530609,347.002411 
	C244.093735,346.952576 237.124283,346.965240 230.157410,346.837097 
	C223.981812,346.723541 217.788269,346.031036 211.639114,346.334106 
	C195.033737,347.152557 178.418839,348.788452 162.394379,342.396088 
	C161.803543,342.160400 160.871140,342.780914 160.097900,343.002441 
z"/>
<path fill="#008C40" opacity="1.000000" stroke="none" 
	d="
M358.092743,361.192017 
	C356.936615,363.020538 355.780487,364.849060 354.237427,366.396606 
	C351.794983,365.755554 349.364471,364.505951 347.747894,365.187347 
	C340.192902,368.371613 332.446136,368.319427 324.475983,368.117462 
	C316.377228,367.912231 308.095703,369.798370 300.183777,368.694061 
	C291.228973,367.444214 282.462646,367.940186 273.576904,367.795502 
	C260.378357,367.580566 247.216812,365.676453 234.012939,365.072205 
	C212.478668,364.086792 191.079590,368.543640 169.502045,367.068359 
	C168.673462,367.011719 167.787613,367.792786 166.928452,368.183472 
	C165.368622,366.343994 163.808792,364.504547 162.658569,362.334167 
	C180.169510,361.009277 197.260040,359.590668 214.375565,359.155273 
	C228.170685,358.804321 241.994736,359.793457 255.808273,359.907532 
	C269.372528,360.019592 282.939667,359.715576 296.505554,359.712524 
	C306.140717,359.710327 315.776978,360.040344 325.410797,359.966675 
	C332.613037,359.911591 339.815704,359.183350 347.011322,359.277710 
	C350.712860,359.326202 354.399414,360.517273 358.092743,361.192017 
z"/>
<path fill="#00833E" opacity="1.000000" stroke="none" 
	d="
M167.079681,368.491730 
	C167.787613,367.792786 168.673462,367.011719 169.502045,367.068359 
	C191.079590,368.543640 212.478668,364.086792 234.012939,365.072205 
	C247.216812,365.676453 260.378357,367.580566 273.576904,367.795502 
	C282.462646,367.940186 291.228973,367.444214 300.183777,368.694061 
	C308.095703,369.798370 316.377228,367.912231 324.475983,368.117462 
	C332.446136,368.319427 340.192902,368.371613 347.747894,365.187347 
	C349.364471,364.505951 351.794983,365.755554 353.914948,366.447632 
	C350.588531,368.889679 347.197662,370.999695 342.962830,373.052429 
	C323.829071,372.997192 305.539246,372.975555 287.249725,373.039398 
	C285.502106,373.045502 283.756317,373.585144 282.009674,373.877075 
	C277.307526,373.927765 272.605377,373.978424 267.291107,373.740387 
	C266.123016,373.584717 265.567047,373.717743 265.011078,373.850800 
	C243.640442,373.906006 222.269791,373.961182 200.117981,373.665649 
	C191.886047,373.211517 184.435287,373.108093 176.984528,373.004700 
	C173.733322,371.603119 170.482117,370.201569 167.079681,368.491730 
z"/>
<path fill="#1CB540" opacity="1.000000" stroke="none" 
	d="
M173.857208,327.933105 
	C177.545319,327.210449 181.231949,325.867584 184.921738,325.858887 
	C234.719650,325.741608 284.518555,325.707245 334.315369,325.986938 
	C339.440460,326.015717 344.553436,328.193756 349.581970,329.881165 
	C347.860901,331.258148 346.272064,332.768127 344.591003,332.878998 
	C339.534454,333.212341 334.441528,332.960205 329.363708,333.016693 
	C326.381561,333.049866 323.402069,333.284882 320.419708,333.343689 
	C310.971283,333.530090 301.509888,334.053192 292.075989,333.749329 
	C278.064362,333.298035 264.080505,331.920227 250.068771,331.557709 
	C238.142471,331.249146 226.193893,331.874176 214.254257,331.963409 
	C210.690277,331.990051 207.125397,331.531250 203.557022,331.421844 
	C198.261154,331.259491 192.960983,331.113831 187.664337,331.158752 
	C185.440826,331.177582 183.221619,331.701752 180.602966,331.996643 
	C176.568451,333.018219 175.686798,329.735291 173.857208,327.933105 
z"/>
<path fill="#7BFE44" opacity="1.000000" stroke="none" 
	d="
M159.995972,301.286438 
	C161.084671,299.924072 162.000000,298.199677 163.251724,297.905182 
	C168.763168,296.608551 174.432510,295.968292 179.922028,294.598785 
	C183.181168,293.785767 186.110748,291.683716 189.362350,290.803345 
	C213.109039,284.374207 237.287827,284.366913 261.652283,285.532257 
	C270.541809,285.957367 279.542877,284.050140 288.878510,283.041931 
	C290.078308,284.737549 290.892670,286.598236 291.248718,288.682922 
	C284.933594,289.077179 278.986450,288.666840 273.242523,289.561523 
	C265.691833,290.737640 258.301086,292.940796 250.622238,294.754120 
	C250.513260,293.530762 250.415054,292.428467 250.340073,291.586853 
	C245.020493,293.810516 240.010757,295.904663 234.532318,297.999390 
	C224.660126,298.142120 215.212448,298.915833 205.864700,298.261658 
	C194.929504,297.496460 184.403915,298.994476 174.333298,302.630859 
	C169.541382,304.361176 165.474197,305.759491 160.876770,303.042236 
	C160.576996,302.555695 160.277206,302.069122 159.995972,301.286438 
z"/>
<path fill="#009140" opacity="1.000000" stroke="none" 
	d="
M358.351990,361.018036 
	C354.399414,360.517273 350.712860,359.326202 347.011322,359.277710 
	C339.815704,359.183350 332.613037,359.911591 325.410797,359.966675 
	C315.776978,360.040344 306.140717,359.710327 296.505554,359.712524 
	C282.939667,359.715576 269.372528,360.019592 255.808273,359.907532 
	C241.994736,359.793457 228.170685,358.804321 214.375565,359.155273 
	C197.260040,359.590668 180.169510,361.009277 162.618790,362.005920 
	C161.401016,360.279846 160.632645,358.551025 160.138809,356.148651 
	C163.289337,354.984802 166.170746,354.050934 169.040359,354.085938 
	C178.339691,354.199310 187.636383,354.980652 196.931030,354.931061 
	C213.288544,354.843842 229.643799,354.332520 246.423004,354.009155 
	C253.901062,354.503204 260.954254,355.360931 268.011566,355.395935 
	C284.955505,355.480072 301.902435,355.253723 318.845947,355.002930 
	C328.682800,354.857361 338.523560,354.574982 348.346191,354.048370 
	C352.791565,353.810059 356.914337,353.660248 359.659607,357.957825 
	C359.310150,358.919891 358.960693,359.881989 358.351990,361.018036 
z"/>
<path fill="#01993F" opacity="1.000000" stroke="none" 
	d="
M359.850464,357.537170 
	C356.914337,353.660248 352.791565,353.810059 348.346191,354.048370 
	C338.523560,354.574982 328.682800,354.857361 318.845947,355.002930 
	C301.902435,355.253723 284.955505,355.480072 268.011566,355.395935 
	C260.954254,355.360931 253.901062,354.503204 246.475708,353.668213 
	C248.070007,351.212494 250.034592,349.108093 251.999161,347.003662 
	C260.744415,347.256042 269.489502,347.515106 278.235046,347.757568 
	C281.807739,347.856628 285.381378,347.984528 288.954681,347.988434 
	C309.377380,348.010773 329.800232,348.039490 350.222595,347.955505 
	C353.168182,347.943390 356.111328,347.334930 359.484528,347.006012 
	C359.956085,350.378540 359.998718,353.747528 359.850464,357.537170 
z"/>
<path fill="#69F048" opacity="1.000000" stroke="none" 
	d="
M268.003418,318.060242 
	C238.642593,318.083008 209.281769,318.105774 179.466125,317.659302 
	C179.269440,316.429077 179.298126,315.273285 179.821655,314.969025 
	C184.363693,312.329773 188.855743,309.523102 193.655853,307.442688 
	C196.170120,306.352936 199.271301,306.617340 202.799393,306.185516 
	C202.725586,306.079163 203.260101,306.849426 203.794617,307.619720 
	C203.800278,307.159424 203.805939,306.699127 203.811584,306.238861 
	C211.208420,306.158813 218.605240,306.078796 226.211624,306.260315 
	C227.613495,306.347748 228.805817,306.173645 230.332062,305.999756 
	C231.111221,305.999634 231.556458,305.999268 232.217499,306.285309 
	C234.251495,307.322357 236.006851,308.404846 237.899307,308.763245 
	C244.328964,309.980865 250.899628,310.569336 257.232666,312.139313 
	C261.167145,313.114716 266.442627,312.464081 268.003418,318.060242 
z"/>
<path fill="#12AA3F" opacity="1.000000" stroke="none" 
	d="
M173.508469,327.955505 
	C175.686798,329.735291 176.568451,333.018219 180.847839,332.281555 
	C189.094727,333.384247 196.685837,334.373535 204.307663,334.970673 
	C211.392563,335.525726 218.510117,335.910492 225.613434,335.912598 
	C232.416031,335.914581 239.230011,334.917633 246.018631,335.103424 
	C254.587173,335.337891 263.124878,336.560455 271.694305,336.933563 
	C284.352661,337.484741 297.025574,337.777161 309.695496,337.965759 
	C320.769928,338.130585 331.850006,338.095337 342.925018,337.949860 
	C347.013947,337.896149 351.404572,337.881134 353.088074,332.813446 
	C353.762360,333.392792 354.436676,333.972168 355.224792,334.796844 
	C355.406250,339.809082 352.052795,340.912109 348.390442,340.926056 
	C338.601105,340.963257 328.810822,340.656555 319.020203,340.559631 
	C317.065887,340.540253 315.105530,341.009186 313.152771,340.975281 
	C296.402344,340.684479 279.651947,340.374481 262.903778,339.977448 
	C252.802399,339.738007 242.699493,338.965698 232.607346,339.114777 
	C223.873138,339.243774 215.160461,340.460938 206.425003,340.968597 
	C194.875336,341.639832 183.494827,339.888123 172.219559,337.719666 
	C170.066681,337.305634 168.311050,334.826141 166.066010,333.087708 
	C168.226486,331.243164 170.693100,329.610504 173.508469,327.955505 
z"/>
<path fill="#02993C" opacity="1.000000" stroke="none" 
	d="
M251.530609,347.002411 
	C250.034592,349.108093 248.070007,351.212494 246.052719,353.657837 
	C229.643799,354.332520 213.288544,354.843842 196.931030,354.931061 
	C187.636383,354.980652 178.339691,354.199310 169.040359,354.085938 
	C166.170746,354.050934 163.289337,354.984802 160.182220,355.790039 
	C159.868958,351.979919 159.786804,347.854858 159.901291,343.366119 
	C160.871140,342.780914 161.803543,342.160400 162.394379,342.396088 
	C178.418839,348.788452 195.033737,347.152557 211.639114,346.334106 
	C217.788269,346.031036 223.981812,346.723541 230.157410,346.837097 
	C237.124283,346.965240 244.093735,346.952576 251.530609,347.002411 
z"/>
<path fill="#73F745" opacity="1.000000" stroke="none" 
	d="
M232.001694,305.998901 
	C231.556458,305.999268 231.111221,305.999634 230.122223,305.738647 
	C228.386322,305.651154 227.194183,305.824982 226.002060,305.998779 
	C218.605240,306.078796 211.208420,306.158813 203.811584,306.238861 
	C203.805939,306.699127 203.800278,307.159424 203.794617,307.619720 
	C203.260101,306.849426 202.725586,306.079163 202.799393,306.185516 
	C199.271301,306.617340 196.170120,306.352936 193.655853,307.442688 
	C188.855743,309.523102 184.363693,312.329773 179.821655,314.969025 
	C179.298126,315.273285 179.269440,316.429077 179.005157,317.565308 
	C170.406265,316.491333 164.367096,311.796326 160.920166,303.396729 
	C165.474197,305.759491 169.541382,304.361176 174.333298,302.630859 
	C184.403915,298.994476 194.929504,297.496460 205.864700,298.261658 
	C215.212448,298.915833 224.660126,298.142120 234.761566,298.269562 
	C237.973419,299.692749 240.487320,300.846375 242.761810,302.275696 
	C239.015488,303.700592 235.508591,304.849731 232.001694,305.998901 
z"/>
<path fill="#16AE41" opacity="1.000000" stroke="none" 
	d="
M353.045044,332.499420 
	C351.404572,337.881134 347.013947,337.896149 342.925018,337.949860 
	C331.850006,338.095337 320.769928,338.130585 309.695496,337.965759 
	C297.025574,337.777161 284.352661,337.484741 271.694305,336.933563 
	C263.124878,336.560455 254.587173,335.337891 246.018631,335.103424 
	C239.230011,334.917633 232.416031,335.914581 225.613434,335.912598 
	C218.510117,335.910492 211.392563,335.525726 204.307663,334.970673 
	C196.685837,334.373535 189.094727,333.384247 181.245331,332.281128 
	C183.221619,331.701752 185.440826,331.177582 187.664337,331.158752 
	C192.960983,331.113831 198.261154,331.259491 203.557022,331.421844 
	C207.125397,331.531250 210.690277,331.990051 214.254257,331.963409 
	C226.193893,331.874176 238.142471,331.249146 250.068771,331.557709 
	C264.080505,331.920227 278.064362,333.298035 292.075989,333.749329 
	C301.509888,334.053192 310.971283,333.530090 320.419708,333.343689 
	C323.402069,333.284882 326.381561,333.049866 329.363708,333.016693 
	C334.441528,332.960205 339.534454,333.212341 344.591003,332.878998 
	C346.272064,332.768127 347.860901,331.258148 349.802551,330.169861 
	C351.076172,330.696381 352.039062,331.440887 353.045044,332.499420 
z"/>
<path fill="#7AFE4D" opacity="1.000000" stroke="none" 
	d="
M243.001221,302.000000 
	C240.487320,300.846375 237.973419,299.692749 235.230270,298.268982 
	C240.010757,295.904663 245.020493,293.810516 250.340073,291.586853 
	C250.415054,292.428467 250.513260,293.530762 250.622238,294.754120 
	C258.301086,292.940796 265.691833,290.737640 273.242523,289.561523 
	C278.986450,288.666840 284.933594,289.077179 291.241730,289.089508 
	C291.544678,293.277954 291.396240,297.283813 290.677490,301.655029 
	C289.352539,302.291321 288.187012,302.344360 287.909271,302.868164 
	C285.932648,306.595520 283.492340,305.960815 280.054352,304.735870 
	C275.794800,303.218170 271.148804,302.348328 266.622284,302.113312 
	C258.767822,301.705505 250.876877,302.000000 243.001221,302.000000 
z"/>
<path fill="#71F74F" opacity="1.000000" stroke="none" 
	d="
M242.761810,302.275696 
	C250.876877,302.000000 258.767822,301.705505 266.622284,302.113312 
	C271.148804,302.348328 275.794800,303.218170 280.054352,304.735870 
	C283.492340,305.960815 285.932648,306.595520 287.909271,302.868164 
	C288.187012,302.344360 289.352539,302.291321 290.472137,302.015503 
	C286.444763,311.390350 280.393890,318.524445 268.433472,318.149841 
	C266.442627,312.464081 261.167145,313.114716 257.232666,312.139313 
	C250.899628,310.569336 244.328964,309.980865 237.899307,308.763245 
	C236.006851,308.404846 234.251495,307.322357 232.217499,306.285309 
	C235.508591,304.849731 239.015488,303.700592 242.761810,302.275696 
z"/>
<path fill="#A5FF42" opacity="1.000000" stroke="none" 
	d="
M302.564117,259.106323 
	C301.206635,259.055573 300.171844,258.859070 299.218048,259.055573 
	C296.790924,259.555603 293.818634,260.694427 292.845184,257.593628 
	C292.211365,255.574783 293.355743,252.997711 294.161102,250.200394 
	C298.549652,245.167664 304.641815,242.486526 305.401215,235.166931 
	C305.739227,231.908752 309.302094,232.560608 311.814697,233.953354 
	C312.915466,234.563492 313.938995,235.312943 314.997589,235.999146 
	C315.031433,238.043076 315.065277,240.087006 314.876556,242.662033 
	C314.784943,243.466599 314.915863,243.740067 315.046783,244.013535 
	C313.764465,251.266571 309.882050,256.435699 302.564117,259.106323 
z"/>
<path fill="#A7FF36" opacity="1.000000" stroke="none" 
	d="
M315.064178,235.571548 
	C313.938995,235.312943 312.915466,234.563492 311.814697,233.953354 
	C309.302094,232.560608 305.739227,231.908752 305.401215,235.166931 
	C304.641815,242.486526 298.549652,245.167664 294.310577,249.864578 
	C294.334961,246.289108 294.667480,242.579132 295.000000,238.434570 
	C295.506165,235.468933 296.012299,232.937866 296.498962,230.504181 
	C295.383118,230.068832 294.230499,229.619125 293.077850,229.169434 
	C294.164124,228.280640 295.250366,227.391861 296.011047,226.769485 
	C296.204102,225.067734 296.377350,223.540558 296.550598,222.013397 
	C298.849701,222.341583 301.430939,222.117172 303.387573,223.116119 
	C307.145447,225.034683 310.549164,227.646896 314.470581,229.981903 
	C314.937836,231.709610 315.034302,233.426788 315.064178,235.571548 
z"/>
<path fill="#008C40" opacity="1.000000" stroke="none" 
	d="
M282.470367,373.967041 
	C283.756317,373.585144 285.502106,373.045502 287.249725,373.039398 
	C305.539246,372.975555 323.829071,372.997192 342.591797,373.010010 
	C340.973419,373.380371 338.883301,374.036133 336.790588,374.044373 
	C318.837677,374.114960 300.884308,374.068481 282.470367,373.967041 
z"/>
<path fill="#008C40" opacity="1.000000" stroke="none" 
	d="
M177.335968,373.230835 
	C184.435287,373.108093 191.886047,373.211517 199.655151,373.576447 
	C192.544800,373.710968 185.116104,373.583984 177.335968,373.230835 
z"/>
<path fill="#008C40" opacity="1.000000" stroke="none" 
	d="
M265.335632,373.940948 
	C265.567047,373.717743 266.123016,373.584717 266.831238,373.651917 
	C266.542389,373.911835 266.101288,373.971466 265.335632,373.940948 
z"/>
<path fill="#A7FF36" opacity="1.000000" stroke="none" 
	d="
M315.101898,243.756424 
	C314.915863,243.740067 314.784943,243.466599 314.820129,243.097504 
	C315.043152,243.167709 315.100098,243.333511 315.101898,243.756424 
z"/>
<path fill="#A7FF36" opacity="1.000000" stroke="none" 
	d="
M277.403625,221.459290 
	C274.807343,220.726730 271.380829,222.876068 270.541748,218.595139 
	C272.898834,218.441956 275.152832,217.963776 277.286896,218.284210 
	C278.519012,218.469223 279.626801,219.874969 280.628693,220.890900 
	C280.846039,221.111237 280.370789,222.014603 280.214508,222.603378 
	C279.376923,222.291534 278.539368,221.979675 277.403625,221.459290 
z"/>
<path fill="#A7FF36" opacity="1.000000" stroke="none" 
	d="
M263.721863,225.520844 
	C264.006989,224.155060 264.574493,222.643082 265.141998,221.131104 
	C265.747131,221.452393 266.352295,221.773697 266.957428,222.095001 
	C265.973022,223.188202 264.988647,224.281418 263.721863,225.520844 
z"/>
<path fill="#A7FF36" opacity="1.000000" stroke="none" 
	d="
M269.074219,225.648285 
	C268.984650,224.907043 269.198792,224.182037 269.412933,223.457047 
	C269.802704,223.598068 270.192505,223.739090 270.582275,223.880096 
	C270.180817,224.474899 269.779388,225.069702 269.074219,225.648285 
z"/>
<path fill="#A7FF36" opacity="1.000000" stroke="none" 
	d="
M275.393860,223.954681 
	C275.790497,223.712692 276.184998,223.714417 276.577332,223.744614 
	C276.588318,223.745468 276.575775,224.051239 276.574188,224.214828 
	C276.179932,224.210663 275.785706,224.206497 275.393860,223.954681 
z"/>
<path fill="#71F74F" opacity="1.000000" stroke="none" 
	d="
M226.211624,306.260315 
	C227.194183,305.824982 228.386322,305.651154 229.788284,305.738434 
	C228.805817,306.173645 227.613495,306.347748 226.211624,306.260315 
z"/>
</svg>